<svg width="102" height="35" viewBox="0 0 102 35" fill="none" xmlns="http://www.w3.org/2000/svg">
<g clip-path="url(#clip0_1_5)">
<path d="M8.672 24.672C9.14133 24.672 9.58933 24.6613 10.016 24.64C10.4427 24.6187 10.784 24.5867 11.04 24.544V20.928C10.848 20.8853 10.56 20.8427 10.176 20.8C9.792 20.7573 9.44 20.736 9.12 20.736C8.672 20.736 8.24533 20.768 7.84 20.832C7.456 20.8747 7.11467 20.9707 6.816 21.12C6.51733 21.2693 6.28267 21.472 6.112 21.728C5.94133 21.984 5.856 22.304 5.856 22.688C5.856 23.4347 6.10133 23.9573 6.592 24.256C7.104 24.5333 7.79733 24.672 8.672 24.672ZM8.288 10.72C9.696 10.72 10.8693 10.88 11.808 11.2C12.7467 11.52 13.4933 11.9787 14.048 12.576C14.624 13.1733 15.0293 13.8987 15.264 14.752C15.4987 15.6053 15.616 16.5547 15.616 17.6V27.52C14.9333 27.6693 13.984 27.84 12.768 28.032C11.552 28.2453 10.08 28.352 8.352 28.352C7.264 28.352 6.272 28.256 5.376 28.064C4.50133 27.872 3.744 27.5627 3.104 27.136C2.464 26.688 1.97333 26.112 1.632 25.408C1.29067 24.704 1.12 23.84 1.12 22.816C1.12 21.8347 1.312 21.0027 1.696 20.32C2.10133 19.6373 2.63467 19.0933 3.296 18.688C3.95733 18.2827 4.71467 17.9947 5.568 17.824C6.42133 17.632 7.30667 17.536 8.224 17.536C8.84267 17.536 9.38667 17.568 9.856 17.632C10.3467 17.6747 10.7413 17.7387 11.04 17.824V17.376C11.04 16.5653 10.7947 15.9147 10.304 15.424C9.81333 14.9333 8.96 14.688 7.744 14.688C6.93333 14.688 6.13333 14.752 5.344 14.88C4.55467 14.9867 3.872 15.1467 3.296 15.36L2.688 11.52C2.96533 11.4347 3.30667 11.3493 3.712 11.264C4.13867 11.1573 4.59733 11.072 5.088 11.008C5.57867 10.9227 6.09067 10.8587 6.624 10.816C7.17867 10.752 7.73333 10.72 8.288 10.72ZM26.6475 28.32C25.2608 28.2987 24.1302 28.1493 23.2555 27.872C22.4022 27.5947 21.7195 27.2107 21.2075 26.72C20.7168 26.208 20.3755 25.6 20.1835 24.896C20.0128 24.1707 19.9275 23.36 19.9275 22.464V3.936L24.6955 3.168V21.504C24.6955 21.9307 24.7275 22.3147 24.7915 22.656C24.8555 22.9973 24.9728 23.2853 25.1435 23.52C25.3355 23.7547 25.6022 23.9467 25.9435 24.096C26.2848 24.2453 26.7435 24.3413 27.3195 24.384L26.6475 28.32ZM36.7725 28.32C35.3858 28.2987 34.2552 28.1493 33.3805 27.872C32.5272 27.5947 31.8445 27.2107 31.3325 26.72C30.8418 26.208 30.5005 25.6 30.3085 24.896C30.1378 24.1707 30.0525 23.36 30.0525 22.464V3.936L34.8205 3.168V21.504C34.8205 21.9307 34.8525 22.3147 34.9165 22.656C34.9805 22.9973 35.0978 23.2853 35.2685 23.52C35.4605 23.7547 35.7272 23.9467 36.0685 24.096C36.4098 24.2453 36.8685 24.3413 37.4445 24.384L36.7725 28.32Z" fill="#27187F"/>
<path d="M47.1535 5.568C50.4602 5.568 52.9988 6.15467 54.7695 7.328C56.5402 8.48 57.4255 10.3787 57.4255 13.024C57.4255 15.6907 56.5295 17.6213 54.7375 18.816C52.9455 19.9893 50.3855 20.576 47.0575 20.576H45.4895V28H40.4975V6.144C41.5855 5.93067 42.7375 5.78133 43.9535 5.696C45.1695 5.61067 46.2362 5.568 47.1535 5.568ZM47.4735 9.824C47.1108 9.824 46.7482 9.83467 46.3855 9.856C46.0442 9.87733 45.7455 9.89867 45.4895 9.92V16.32H47.0575C48.7855 16.32 50.0868 16.0853 50.9615 15.616C51.8362 15.1467 52.2735 14.272 52.2735 12.992C52.2735 12.3733 52.1562 11.8613 51.9215 11.456C51.7082 11.0507 51.3882 10.7307 50.9615 10.496C50.5562 10.24 50.0548 10.0693 49.4575 9.984C48.8602 9.87733 48.1988 9.824 47.4735 9.824ZM76.0465 19.552C76.0465 20.8747 75.8545 22.0907 75.4705 23.2C75.0865 24.288 74.5318 25.2267 73.8065 26.016C73.0812 26.784 72.2065 27.3813 71.1825 27.808C70.1798 28.2347 69.0492 28.448 67.7905 28.448C66.5532 28.448 65.4225 28.2347 64.3985 27.808C63.3958 27.3813 62.5318 26.784 61.8065 26.016C61.0812 25.2267 60.5158 24.288 60.1105 23.2C59.7052 22.0907 59.5025 20.8747 59.5025 19.552C59.5025 18.2293 59.7052 17.024 60.1105 15.936C60.5372 14.848 61.1132 13.92 61.8385 13.152C62.5852 12.384 63.4598 11.7867 64.4625 11.36C65.4865 10.9333 66.5958 10.72 67.7905 10.72C69.0065 10.72 70.1158 10.9333 71.1185 11.36C72.1425 11.7867 73.0172 12.384 73.7425 13.152C74.4678 13.92 75.0332 14.848 75.4385 15.936C75.8438 17.024 76.0465 18.2293 76.0465 19.552ZM71.1825 19.552C71.1825 18.08 70.8838 16.928 70.2865 16.096C69.7105 15.2427 68.8785 14.816 67.7905 14.816C66.7025 14.816 65.8598 15.2427 65.2625 16.096C64.6652 16.928 64.3665 18.08 64.3665 19.552C64.3665 21.024 64.6652 22.1973 65.2625 23.072C65.8598 23.9253 66.7025 24.352 67.7905 24.352C68.8785 24.352 69.7105 23.9253 70.2865 23.072C70.8838 22.1973 71.1825 21.024 71.1825 19.552ZM89.884 15.392C89.4573 15.2853 88.956 15.1787 88.38 15.072C87.804 14.944 87.1853 14.88 86.524 14.88C86.2253 14.88 85.8627 14.912 85.436 14.976C85.0307 15.0187 84.7213 15.072 84.508 15.136V28H79.74V12.064C80.5933 11.7653 81.596 11.488 82.748 11.232C83.9213 10.9547 85.2227 10.816 86.652 10.816C86.908 10.816 87.2173 10.8373 87.58 10.88C87.9427 10.9013 88.3053 10.944 88.668 11.008C89.0307 11.0507 89.3933 11.1147 89.756 11.2C90.1187 11.264 90.428 11.3493 90.684 11.456L89.884 15.392ZM93.08 6.976L97.848 6.208V11.168H103.576V15.136H97.848V21.056C97.848 22.0587 98.0187 22.8587 98.36 23.456C98.7227 24.0533 99.4373 24.352 100.504 24.352C101.016 24.352 101.539 24.3093 102.072 24.224C102.627 24.1173 103.128 23.9787 103.576 23.808L104.248 27.52C103.672 27.7547 103.032 27.9573 102.328 28.128C101.624 28.2987 100.76 28.384 99.736 28.384C98.4347 28.384 97.3573 28.2133 96.504 27.872C95.6507 27.5093 94.968 27.0187 94.456 26.4C93.944 25.76 93.5813 24.992 93.368 24.096C93.176 23.2 93.08 22.208 93.08 21.12V6.976Z" fill="#758BFD"/>
</g>
<defs>
<clipPath id="clip0_1_5">
<rect width="102" height="35" fill="white"/>
</clipPath>
</defs>
</svg>
